<svg width="40" height="40" viewBox="0 0 40 40" fill="none" xmlns="http://www.w3.org/2000/svg">
<path d="M20 1.66406V2.16406V1.66406ZM30.6064 6.05762L30.96 5.70406V5.70406L30.6064 6.05762ZM35 16.6641H35.5V16.6641H35ZM20 38.5L19.7194 38.9139C19.8888 39.0287 20.1112 39.0287 20.2806 38.9139L20 38.5ZM5 16.6641H4.5V16.6641H5ZM9.39355 6.05762L9.04 5.70406V5.70406L9.39355 6.05762ZM20 1.66406V2.16406C23.8456 2.16406 27.5336 3.69188 30.2529 6.41117L30.6064 6.05762L30.96 5.70406C28.0532 2.79726 24.1109 1.16406 20 1.16406V1.66406ZM30.6064 6.05762L30.2529 6.41117C32.9722 9.13046 34.5 12.8184 34.5 16.6641H35H35.5C35.5 12.5532 33.8668 8.61086 30.96 5.70406L30.6064 6.05762ZM35 16.6641H34.5C34.5 22.2975 30.8661 27.6348 27.1352 31.6151C25.28 33.5943 23.4232 35.2143 22.0296 36.3398C21.3332 36.9022 20.7535 37.3403 20.3488 37.6371C20.1465 37.7855 19.988 37.8985 19.8807 37.9741C19.827 38.0119 19.7861 38.0403 19.7589 38.059C19.7453 38.0684 19.7352 38.0754 19.7286 38.0799C19.7252 38.0822 19.7228 38.0838 19.7213 38.0849C19.7205 38.0854 19.72 38.0858 19.7197 38.086C19.7195 38.0861 19.7195 38.0861 19.7194 38.0862C19.7194 38.0862 19.7194 38.0861 20 38.5C20.2806 38.9139 20.2807 38.9137 20.281 38.9136C20.2811 38.9135 20.2814 38.9133 20.2817 38.9131C20.2823 38.9127 20.2831 38.9121 20.2842 38.9114C20.2863 38.91 20.2893 38.9079 20.2932 38.9053C20.301 38.8999 20.3123 38.8921 20.3271 38.8819C20.3567 38.8615 20.4001 38.8314 20.4563 38.7918C20.5686 38.7127 20.7324 38.5959 20.9403 38.4434C21.3559 38.1385 21.948 37.691 22.6579 37.1178C24.0768 35.9719 25.97 34.3205 27.8648 32.299C31.6339 28.2779 35.5 22.6973 35.5 16.6641H35ZM20 38.5C20.2806 38.0861 20.2806 38.0862 20.2806 38.0862C20.2805 38.0861 20.2805 38.0861 20.2803 38.086C20.28 38.0858 20.2795 38.0854 20.2787 38.0849C20.2772 38.0838 20.2748 38.0822 20.2714 38.0799C20.2648 38.0754 20.2547 38.0684 20.2411 38.059C20.2139 38.0403 20.173 38.0119 20.1193 37.9741C20.012 37.8985 19.8535 37.7855 19.6512 37.6371C19.2465 37.3403 18.6668 36.9022 17.9704 36.3398C16.5768 35.2143 14.72 33.5943 12.8648 31.6151C9.1339 27.6348 5.5 22.2975 5.5 16.6641H5H4.5C4.5 22.6973 8.3661 28.2779 12.1352 32.299C14.03 34.3205 15.9232 35.9719 17.3421 37.1178C18.052 37.691 18.6441 38.1385 19.0597 38.4434C19.2676 38.5959 19.4314 38.7127 19.5437 38.7918C19.5999 38.8314 19.6433 38.8615 19.6729 38.8819C19.6877 38.8921 19.699 38.8999 19.7068 38.9053C19.7107 38.9079 19.7137 38.91 19.7158 38.9114C19.7169 38.9121 19.7177 38.9127 19.7183 38.9131C19.7186 38.9133 19.7189 38.9135 19.719 38.9136C19.7193 38.9137 19.7194 38.9139 20 38.5ZM5 16.6641H5.5C5.5 12.8184 7.02782 9.13046 9.74711 6.41117L9.39355 6.05762L9.04 5.70406C6.1332 8.61086 4.5 12.5532 4.5 16.6641H5ZM9.39355 6.05762L9.74711 6.41117C12.4664 3.69188 16.1544 2.16406 20 2.16406V1.66406V1.16406C15.8891 1.16406 11.9468 2.79726 9.04 5.70406L9.39355 6.05762ZM20 11.6641V11.1641C16.9624 11.1641 14.5 13.6265 14.5 16.6641H15H15.5C15.5 14.1788 17.5147 12.1641 20 12.1641V11.6641ZM15 16.6641H14.5C14.5 19.7016 16.9624 22.1641 20 22.1641V21.6641V21.1641C17.5147 21.1641 15.5 19.1493 15.5 16.6641H15ZM20 21.6641V22.1641C23.0376 22.1641 25.5 19.7016 25.5 16.6641H25H24.5C24.5 19.1493 22.4853 21.1641 20 21.1641V21.6641ZM25 16.6641H25.5C25.5 13.6265 23.0376 11.1641 20 11.1641V11.6641V12.1641C22.4853 12.1641 24.5 14.1788 24.5 16.6641H25Z" fill="black"/>
</svg>
