<svg width="165" height="124" viewBox="0 0 165 124" fill="none" xmlns="http://www.w3.org/2000/svg">
<path d="M129.631 7.55359V20.0399C128.043 17.7293 126.332 15.6075 124.543 13.6746C119.167 7.66467 112.946 3.74325 106.125 1.69922V6.46492C107.936 7.53137 109.613 8.88665 111.135 10.553C117.445 17.4738 122.022 29.4269 122.022 61.9648C122.022 94.5026 117.445 106.456 111.135 113.377C109.613 115.043 107.936 116.398 106.125 117.465V122.23C112.946 120.186 119.167 116.265 124.543 110.255C126.332 108.322 128.043 106.2 129.631 103.89V116.376C131.986 114.643 134.23 112.61 136.33 110.255C145.95 99.8682 153.215 84.1158 153.215 61.9537C153.215 39.7915 145.961 24.0391 136.33 13.6524C134.219 11.2973 131.975 9.25324 129.631 7.53137V7.55359ZM129.709 100.957V22.9949C132.253 31.0488 133.808 43.0131 133.808 61.9759C133.808 80.9387 132.253 92.9029 129.709 100.957Z" fill="#918FC7"/>
<path d="M82.5195 120.488C82.5195 120.488 82.5195 120.488 82.5084 120.488C82.5084 120.488 82.5084 120.488 82.4973 120.488C75.7431 120.477 70.0776 118.222 65.6785 113.39C63.079 110.546 60.7795 106.846 58.9688 101.214V116.4C65.9229 121.51 73.8991 123.932 82.4751 123.943C82.4751 123.943 82.4862 123.943 82.4973 123.943C82.5084 123.943 82.5084 123.943 82.5195 123.943C82.5195 123.943 82.5306 123.943 82.5417 123.943C82.5529 123.943 82.5529 123.943 82.564 123.943C91.14 123.932 99.105 121.51 106.07 116.389V101.203C104.26 106.835 101.96 110.535 99.3717 113.378C94.9614 118.211 89.307 120.466 82.5529 120.477L82.5195 120.488Z" fill="#918FC7"/>
<path d="M82.5405 0C82.5405 0 82.5294 0 82.5183 0C82.5072 0 82.5072 0 82.4961 0C82.4961 0 82.485 0 82.4739 0C82.4628 0 82.4628 0 82.4517 0C73.8756 0.0111089 65.9106 2.43284 58.9453 7.55403V22.7398C60.7561 17.1076 63.0556 13.4084 65.644 10.5645C70.0542 5.73217 75.7086 3.47708 82.4628 3.46597C82.4628 3.46597 82.4628 3.46597 82.4739 3.46597C82.4739 3.46597 82.4739 3.46597 82.485 3.46597C89.2392 3.47708 94.9047 5.73217 99.3038 10.5645C101.903 13.4084 104.203 17.1076 106.014 22.7398V7.55403C99.0594 2.44395 91.0832 0.0222201 82.5072 0.0111112L82.5405 0Z" fill="#918FC7"/>
<path d="M153.289 20.1406V103.801C160.232 93.7035 164.998 79.9396 164.998 61.9766C164.998 44.0136 160.221 30.2497 153.289 20.1406Z" fill="#918FC7"/>
<path d="M40.4571 13.6758C38.6686 15.6087 36.9578 17.7305 35.3693 20.0412V7.55481C33.0142 9.28779 30.7702 11.3207 28.6706 13.6758C19.0503 24.0626 11.7852 39.8149 11.7852 61.9771C11.7852 84.1393 19.0392 99.8916 28.6706 110.278C30.7813 112.633 33.0253 114.678 35.3693 116.399V103.913C36.9578 106.224 38.6686 108.345 40.4571 110.278C45.8338 116.288 52.0548 120.21 58.8756 122.254V117.488C57.0649 116.422 55.3874 115.066 53.8655 113.4C47.5557 106.479 42.9788 94.5261 42.9788 61.9882C42.9788 29.4504 47.5557 17.4972 53.8655 10.5764C55.3874 8.91009 57.0649 7.55481 58.8756 6.48836V1.72266C52.0548 3.76669 45.8338 7.68811 40.4571 13.698V13.6758ZM35.2915 100.958C32.7476 92.9042 31.1923 80.9399 31.1923 61.9771C31.1923 43.0143 32.7476 31.05 35.2915 22.9961V100.958Z" fill="#918FC7"/>
<path d="M11.7087 103.801V20.1406C4.7657 30.2386 0 44.0025 0 61.9766C0 79.9507 4.77681 93.7035 11.7087 103.801Z" fill="#918FC7"/>
<path d="M82.5084 38.4375C69.5 38.4375 58.9688 48.9798 58.9688 61.9772C58.9688 74.9745 69.5111 85.5168 82.5084 85.5168C95.5058 85.5168 106.048 74.9745 106.048 61.9772C106.048 48.9798 95.5058 38.4375 82.5084 38.4375ZM102.449 60.222H86.752L97.8498 49.1242C100.416 52.1792 102.082 56.0117 102.449 60.222ZM84.2636 42.0479C88.4739 42.4145 92.2953 44.0697 95.3614 46.6358L84.2636 57.7336V42.0479ZM80.7421 42.0479V57.7336L69.6444 46.6358C72.6993 44.0697 76.5319 42.4145 80.7421 42.0479ZM67.156 49.1242L78.2537 60.222H62.5569C62.9235 56.0117 64.5898 52.1903 67.156 49.1242ZM62.5569 63.7435H78.2537L67.156 74.8412C64.5898 71.7863 62.9235 67.9537 62.5569 63.7435ZM80.7421 81.9065C76.5319 81.5399 72.7104 79.8847 69.6444 77.3185L80.7421 66.2208V81.9065ZM84.2636 81.9065V66.2208L95.3614 77.3185C92.3064 79.8847 88.4739 81.5399 84.2636 81.9065ZM97.8498 74.8301L86.752 63.7324H102.449C102.082 67.9426 100.416 71.7641 97.8498 74.8301Z" fill="#918FC7"/>
</svg>
