<svg width="165" height="126" viewBox="0 0 165 126" fill="none" xmlns="http://www.w3.org/2000/svg">
<path d="M129.704 101.98V23.223C132.244 31.3649 133.803 43.4386 133.803 62.5961C133.803 81.7535 132.244 93.8383 129.704 101.969M129.626 7.62974V20.2492C128.034 17.9213 126.329 15.7717 124.536 13.8225C119.168 7.75225 112.941 3.7871 106.125 1.72656V6.54934C107.941 7.62974 109.611 8.99972 111.137 10.6816C117.441 17.6763 122.019 29.7388 122.019 62.6183C122.019 95.4979 117.441 107.56 111.137 114.555C109.622 116.237 107.941 117.607 106.125 118.687V123.51C112.941 121.45 119.168 117.484 124.536 111.414C126.329 109.465 128.034 107.315 129.626 104.988V117.607C131.976 115.858 134.215 113.798 136.331 111.414C145.955 100.922 153.206 85.0058 153.206 62.6183C153.206 40.2308 145.955 24.3145 136.331 13.8225C134.226 11.439 131.988 9.37841 129.626 7.62974Z" fill="#7dd3fc"/>
<path d="M82.5101 121.715H82.499C82.499 121.715 82.4878 121.715 82.4767 121.715C75.7159 121.704 70.0578 119.432 65.6582 114.543C63.0631 111.669 60.7686 107.927 58.9531 102.246V117.583C65.9144 122.751 73.8781 125.191 82.4544 125.213C82.4544 125.213 82.4656 125.213 82.4767 125.213C82.4767 125.213 82.4878 125.213 82.499 125.213C82.5101 125.213 82.5101 125.213 82.5213 125.213C82.5324 125.213 82.5324 125.213 82.5435 125.213C91.1198 125.191 99.0835 122.751 106.045 117.583V102.246C104.229 107.927 101.935 111.669 99.3397 114.543C94.9402 119.421 89.2709 121.693 82.5213 121.715" fill="#7dd3fc"/>
<path d="M82.5311 0C82.5311 0 82.52 0 82.5089 0C82.4977 0 82.4977 0 82.4866 0C82.4755 0 82.4755 0 82.4643 0C82.4532 0 82.4532 0 82.442 0C73.8657 0.0222761 65.902 2.46151 58.9407 7.62957V22.9667C60.7562 17.2863 63.0507 13.5439 65.6459 10.6703C70.0454 5.79179 75.7147 3.51963 82.4643 3.49735H82.4977C89.2585 3.50849 94.9167 5.78066 99.3162 10.6703C99.3162 10.6814 99.3385 10.6925 99.3496 10.7037C101.488 13.0872 102.546 16.2616 102.546 19.4693V50.2104C97.7235 42.2467 88.4232 37.3571 78.1539 39.206C68.8759 40.8767 61.3131 48.2835 59.4308 57.6172C56.2565 73.4221 68.6086 87.2444 83.8788 86.3534C96.4314 85.6183 106.01 74.625 106.01 61.9276V7.62957C99.0489 2.46151 91.0852 0.0222761 82.5089 0H82.5311Z" fill="#7dd3fc"/>
<path d="M153.281 20.3516V104.867C160.22 94.6647 164.998 80.7644 164.998 62.6094C164.998 44.4543 160.22 30.554 153.281 20.3516Z" fill="#7dd3fc"/>
<path d="M35.2982 101.98C32.7587 93.8377 31.1994 81.7641 31.1994 62.6066C31.1994 43.4492 32.7587 31.3644 35.2982 23.2336V101.991V101.98ZM40.4662 13.8108C38.673 15.7599 36.9689 17.9096 35.3761 20.2374V7.61801C33.026 9.36669 30.7873 11.4272 28.671 13.8108C19.0477 24.3028 11.7969 40.2191 11.7969 62.6066C11.7969 84.9941 19.0477 100.91 28.671 111.402C30.7761 113.786 33.0149 115.847 35.3761 117.584V104.976C36.9689 107.304 38.673 109.453 40.4662 111.402C45.8348 117.473 52.061 121.438 58.8774 123.498V118.676C57.0619 117.595 55.3912 116.225 53.8653 114.543C47.5612 107.549 42.9834 95.4862 42.9834 62.6066C42.9834 29.7271 47.5612 17.6645 53.8653 10.6698C55.3801 8.988 57.0619 7.61802 58.8774 6.53763V1.71484C52.061 3.77538 45.8348 7.74054 40.4662 13.8108Z" fill="#7dd3fc"/>
<path d="M11.7172 104.867V20.3516C4.77823 30.554 0 44.4543 0 62.6094C0 80.7644 4.77823 94.6647 11.7172 104.867Z" fill="#7dd3fc"/>
</svg>
